<?xml version="1.0" encoding="utf-8"?>
<!-- Generator: Adobe Illustrator 25.0.1, SVG Export Plug-In . SVG Version: 6.00 Build 0)  -->
<svg version="1.1" id="Layer_1" xmlns="http://www.w3.org/2000/svg" xmlns:xlink="http://www.w3.org/1999/xlink" x="0px" y="0px"
	 viewBox="0 0 1512 512" style="enable-background:new 0 0 1366 768;" xml:space="preserve">
<g>
	<path d="M1177,146.9c-48.3-34.6-107.4-54.9-171.3-54.9c-63.9,0-123,20.4-171.3,54.9H1177z"/>
	<path d="M1016.4,443L898.2,660.6c15.4,6,31.4,10.8,47.9,14.2L1072.9,443H1016.4z"/>
	<path d="M875.1,443h-45.8l-13.8-94h111l46.3-84.7H737.7c-17,37.2-26.5,78.6-26.5,122.1c0,79.6,31.6,151.7,82.8,204.7L875.1,443z"/>
	<path d="M1177.2,147l-109.7,202h169.1L1059,676.1c137.2-25.1,241.2-145.2,241.2-289.7C1300.2,287.8,1251.7,200.5,1177.2,147z"/>
</g>
</svg>
